<?xml version="1.0" encoding="UTF-8"?>
<svg width="60px" height="60px" viewBox="0 0 60 60" version="1.1" xmlns="http://www.w3.org/2000/svg" xmlns:xlink="http://www.w3.org/1999/xlink">
    <!-- Generator: Sketch 58 (84663) - https://sketch.com -->
    <title>Level / 1 - Sober</title>
    <desc>Created with Sketch.</desc>
    <g id="Level-/-1---Sober" stroke="none" stroke-width="1" fill="none" fill-rule="evenodd">
        <g id="Group" transform="translate(22.000000, 19.000000)" fill="#FFFFFF" fill-rule="nonzero">
            <path d="M8.2683992,0.654684685 C9.91680008,0.654684685 11.2578401,1.97384686 11.2578401,3.59486896 C11.2578401,5.21597059 9.91680008,6.53513128 8.2683992,6.53513128 C6.61991896,6.53513128 5.27856,5.21597059 5.27856,3.59486896 C5.27856,1.97384686 6.61991896,0.654684685 8.2683992,0.654684685 Z" id="Path"></path>
            <path d="M0.5,18.5 L0.5,11 C1,8 3,8 4.72232,7.82345264 L11.6836001,7.82345264 C13,8 15.5,8.5 16,11 C16,15 16,17.3333333 16,18 C16,19 15.6867218,19.5 15,19.5 L14.5,19.5 C14,19.5 13.5,19 13.5,18.5 C13.5,18.4672144 13.5,16.4672144 13.5,12.5 C13.5,12 13.5,11.5 13,11.5 C12.5,11.5 12.5,12 12.5,12.5 L12.4429598,32.0802633 C12.4429598,32.51854 12.2715258,32.9288106 11.9601594,33.2353133 C11.6488802,33.5415037 11.2316789,33.7100951 10.7855989,33.7100951 C9.88887952,33.7100951 9.16743936,33.02188 9.1308,32.1401317 C9.13239912,32.1199135 9.13479936,32.0993802 9.13479936,32.0802633 L9.13479936,21.3781308 C9.13479936,20.9437075 8.7765596,20.5914175 8.33479936,20.5914175 C7.88672504,20.5914175 7.52856008,20.9437075 7.52856008,21.3781308 L7.52856008,32.1232176 C7.52032488,32.5473353 7.3504,32.9395095 7.04919912,33.231853 C6.65663928,33.6133314 6.1223192,33.7849898 5.56095904,33.6778394 C4.79295976,33.5337939 4.21407944,32.7862596 4.21407944,31.9392818 L4,12.5 C4,12 4,11.5 3.5,11.5 C3,11.5 3,12 3,12.5 C3,13.9556443 3,15.9556443 3,18.5 C3,19 2.5,19.5 2,19.5 C1.80604863,19.5 2,19.5 1.5,19.5 C1,19.5 0.5,19 0.5,18.5 Z" id="Path"></path>
        </g>
    </g>
</svg>