<?xml version="1.0" encoding="UTF-8"?>
<svg width="60px" height="60px" viewBox="0 0 60 60" version="1.1" xmlns="http://www.w3.org/2000/svg" xmlns:xlink="http://www.w3.org/1999/xlink">
    <!-- Generator: Sketch 58 (84663) - https://sketch.com -->
    <title>Level / 2 - Tipsy</title>
    <desc>Created with Sketch.</desc>
    <g id="Level-/-2---Tipsy" stroke="none" stroke-width="1" fill="none" fill-rule="evenodd">
        <g id="Group" transform="translate(17.000000, 8.000000)" fill="#FFFFFF">
            <path d="M14.2683992,11.6546847 C15.9168001,11.6546847 17.2578401,12.9738469 17.2578401,14.594869 C17.2578401,16.2159706 15.9168001,17.5351313 14.2683992,17.5351313 C12.619919,17.5351313 11.27856,16.2159706 11.27856,14.594869 C11.27856,12.9738469 12.619919,11.6546847 14.2683992,11.6546847 Z" id="Path" fill-rule="nonzero"></path>
            <path d="M2.64688016,19.5744489 L4.04152008,22.0187689 C4.37263992,22.5 4.50975968,22.5484613 4.71568016,22.4147995 L8.26095984,19.6093796 C8.98128,19.0954204 9.83207952,18.8234526 10.72232,18.8234526 L17.6836001,18.8234526 C18.5101595,18.8234526 19.315999,19.1080864 19.9531252,19.6251143 C20.0893602,19.7690818 22.4444796,21.8275976 23.5136797,25.1529545 L24.8640779,29.321592 C24.9027254,29.4348765 24.9230379,29.5586287 24.9230379,29.679623 C24.9230379,30.348016 24.3644808,30.8919485 23.677759,30.8919485 L23.5906404,30.8892745 C23.0683992,30.8566258 22.6027254,30.4471414 22.4586397,29.8935304 C22.0731996,28.650525 21.7566393,26.1763113 19.9304796,23.1565897 C19.74648,22.8522898 19.3789598,22.7090307 19.0308794,22.8000532 C18.6836,22.8942208 18.4429598,23.2045798 18.4429598,23.5587574 L18.4429598,43.0802633 C18.4429598,43.51854 18.2715258,43.9288106 17.9601594,44.2353133 C17.6488802,44.5415037 17.2316789,44.7100951 16.7855989,44.7100951 C15.8888795,44.7100951 15.1674394,44.02188 15.1308,43.1401317 C15.1323991,43.1199135 15.1347994,43.0993802 15.1347994,43.0802633 L15.1347994,32.3781308 C15.1347994,31.9437075 14.7765596,31.5914175 14.3347994,31.5914175 C14.3323991,31.5914175 14.3308794,31.5914175 14.3285601,31.5914175 C13.886725,31.5914175 13.5285601,31.9437075 13.5285601,32.3781308 L13.5285601,43.1232176 C13.5203249,43.5473353 13.3504,43.9395095 13.0491991,44.231853 C12.6566393,44.6133314 12.1223192,44.7849898 11.560959,44.6778394 C10.7929598,44.5337939 10.2140794,43.7862596 10.2140794,42.9392818 L10.2140794,22.878093 C10.2140794,22.5903141 10.0543199,22.3252713 9.79727952,22.18736 C9.53984008,22.0490556 9.22696016,22.0602285 8.98127992,22.2165484 L4.99536,24.7392204 C4.11767976,25.2953493 2.94600008,24.945184 2.52736,24.0089933 L0.85512016,20.2709257 C0.62384,19.7537418 0.89848008,19.1496243 1.45664016,18.9821329 C1.94456,18.8350175 2.47968008,19.1073769 2.64688016,19.5744489 Z" id="Path" fill-rule="nonzero"></path>
            <path d="M0.21263992,14.6147832 L3.33263992,14.6147832 L3.33263992,16.7712191 C3.33263992,17.2741147 2.69792912,17.6829651 1.91815714,17.6829651 L1.62808665,17.6829651 C0.847363061,17.6829651 0.21263992,17.2741147 0.21263992,16.7712191 L0.21263992,14.6147832 L0.21263992,14.6147832 Z" id="Path" fill-rule="nonzero"></path>
            <path d="M12.0785601,6.79460672 C12.0785601,7.22910808 12.4367205,7.58132001 12.8785601,7.58132001 C13.3203249,7.58132001 13.6785601,7.22910808 13.6785601,6.79460672 C13.6785601,5.85550723 15.2785601,5.59974674 15.2785601,3.78794573 C15.2785601,1.97071686 13.6785601,1.73722028 13.6785601,0.786713287 C13.6785601,0.352211538 13.3203249,0 12.8785601,0 C12.4367205,0 12.0785601,0.352211538 12.0785601,0.786713287 C12.0785601,2.60394215 13.6785601,2.83751756 13.6785601,3.78794573 C13.6785601,4.74034075 12.0785601,4.97438803 12.0785601,6.79460672 Z" id="Path" fill-rule="nonzero"></path>
            <path d="M23.419919,11.2725003 C22.9781587,11.6877281 22.3726396,12.256679 22.3726396,13.3449386 C22.3726396,13.7793619 22.7308794,14.1316519 23.1726396,14.1316519 C23.6144807,14.1316519 23.9726381,13.7793619 23.9726381,13.3449386 C23.9726381,12.9461545 24.1422395,12.7702451 24.5254396,12.4103234 C24.9671998,11.9950965 25.5726381,11.4261448 25.5726381,10.3382783 C25.5726381,9.25041178 24.9671998,8.68146018 24.5254396,8.26623244 C24.1422395,7.9063115 23.9726381,7.7304021 23.9726381,7.33201041 C23.9726381,6.93519199 24.1418398,6.75967649 24.5250398,6.40046305 C24.9671998,5.98562921 25.5726381,5.41746535 25.5726381,4.33038477 C25.5726381,3.89588263 25.2144807,3.54367149 24.7726381,3.54367149 C24.3308809,3.54367149 23.9726381,3.89588263 23.9726381,4.33038477 C23.9726381,4.7272028 23.803525,4.90271869 23.4203249,5.26193174 C22.9781587,5.67676558 22.3726396,6.24493023 22.3726396,7.33201041 C22.3726396,8.41987762 22.9781587,8.98882851 23.419919,9.40405626 C23.803119,9.76397719 23.9726381,9.93996535 23.9726381,10.3382783 C23.9726381,10.7366692 23.803119,10.9125786 23.419919,11.2725003 Z" id="Path" fill-rule="nonzero"></path>
            <path d="M0.416,5.87541108 L1.89999984,6.67361022 L2.71136,8.13256985 C2.85160008,8.38494732 3.12072016,8.54166115 3.41327992,8.54166115 C3.70584008,8.54166115 3.97503984,8.3849474 4.11528,8.13256985 L4.92655968,6.67361022 L6.41056008,5.87541108 C6.66719992,5.73710664 6.82655968,5.47237747 6.82655968,5.18506977 C6.82655968,4.89736888 6.66680016,4.63271853 6.41056008,4.49480761 L4.9265596,3.69692316 L4.11527992,2.23757001 C3.83479976,1.73360132 2.99183976,1.73360132 2.71135992,2.23757001 L1.89999976,3.69692316 L0.416,4.49480761 C0.15976008,4.63271853 8.8817842e-15,4.89736896 8.8817842e-15,5.18506977 C8.8817842e-15,5.47237747 0.15936008,5.73710664 0.416,5.87541108 Z" id="Path" fill-rule="nonzero"></path>
            <path d="M18.8991991,3.66812937 L19.586725,3.66812937 C20.0285601,3.66812937 20.386725,3.315839 20.386725,2.88141608 C20.386725,2.44691434 20.0285601,2.0947028 19.586725,2.0947028 L18.8991991,2.0947028 C18.4574389,2.0947028 18.0991991,2.44691434 18.0991991,2.88141608 C18.0991991,3.31583908 18.4574388,3.66812937 18.8991991,3.66812937 Z" id="Path" fill-rule="nonzero"></path>
            <path d="M8.27072544,10.2242045 L8.95784016,10.2242045 C9.39959968,10.2242045 9.75784016,9.87191449 9.75784016,9.43749118 C9.75784016,9.00298983 9.39959968,8.65077789 8.95784016,8.65077789 L8.27072544,8.65077789 C7.82895984,8.65077789 7.47072544,9.00298983 7.47072544,9.43749118 C7.47072544,9.87191449 7.82895984,10.2242045 8.27072544,10.2242045 Z" id="Path" fill-rule="nonzero"></path>
            <rect id="Rectangle" x="1.25263992" y="17.3863636" width="1.04" height="2.04545455"></rect>
        </g>
    </g>
</svg>