<?xml version="1.0" encoding="UTF-8"?>
<svg width="60px" height="60px" viewBox="0 0 60 60" version="1.1" xmlns="http://www.w3.org/2000/svg" xmlns:xlink="http://www.w3.org/1999/xlink">
    <!-- Generator: Sketch 58 (84663) - https://sketch.com -->
    <title>Level / 3 - Drunk</title>
    <desc>Created with Sketch.</desc>
    <g id="Level-/-3---Drunk" stroke="none" stroke-width="1" fill="none" fill-rule="evenodd">
        <g id="Group" transform="translate(8.000000, 8.000000)" fill="#FFFFFF" fill-rule="nonzero">
            <path d="M25.2779846,15.2613601 C25.2779846,16.8498049 23.9855377,18.1421773 22.3970928,18.1421773 C20.8083536,18.1421773 19.5159066,16.849805 19.5159066,15.2613601 C19.5159066,13.6725476 20.8083536,12.3801006 22.3970928,12.3801006 C23.9855376,12.3801006 25.2779846,13.6725476 25.2779846,15.2613601 Z" id="Path"></path>
            <path d="M7.19188635,15.10673 C7.35697729,14.6041484 7.64973271,14.1495586 8.03867749,13.7915419 C8.61228651,13.2637835 9.04450476,12.5928628 9.28933523,11.8472969 L10.2064883,9 L11.1250524,9.30138642 L10.207153,12.1526703 C9.96387303,12.8935107 9.91410957,13.6906124 10.0636957,14.4567035 C10.1646252,14.9754548 10.131106,15.5151741 9.966015,16.0170171 L8.77412792,19.6487896 L6,18.7381328 L7.19188635,15.10673 Z" id="Path" transform="translate(8.562526, 14.324395) rotate(26.000000) translate(-8.562526, -14.324395) "></path>
            <path d="M34.6480596,10.3806283 L33.1338916,15.3718883 C33.0416003,15.6822828 32.8862559,15.958861 32.6724352,16.1946096 L26.1572613,23.3828454 C26.0339603,23.5184039 25.9658122,23.7026175 25.9658122,23.8857974 L25.9658122,28.1568154 C25.9658122,28.6853131 26.158295,29.1990439 26.5116596,29.6071192 L30.3565233,33.9808383 C31.170902,34.9027175 31.6193547,36.0866304 31.6193547,37.3141793 L31.6193547,42.9388527 C31.6193547,43.6895136 31.0090516,44.2998168 30.2075949,44.2998168 C29.4570072,44.2998168 28.846704,43.6895136 28.846704,42.9388527 L28.846704,37.3429724 C28.846704,36.7849437 28.6282304,36.2474387 28.2269487,35.8237855 L24.2598993,31.7193328 C24.0547196,31.5077287 23.7446927,31.4392847 23.4695904,31.540879 C23.1941952,31.644394 22.5,32 22.5,32.5 C22.5,32.8333333 22.5721654,34.5381528 22.7164961,37.6144583 C22.682974,38.2352445 22.5881732,38.854262 22.4346004,39.4552622 L21.4561657,43.2813652 C21.3833661,43.5723413 21.2142884,43.8308289 20.9744783,44.0131978 C20.3911982,44.466016 19.4830508,44.3405716 19.043597,43.7489475 C18.7851079,43.401416 18.7083214,42.9644716 18.8334026,42.5487919 L19.9484955,38.8052379 C20.1954665,37.9738756 20.1366959,37.0827132 19.785914,36.2997132 L18.4610547,33.2944134 C18.0568931,32.3823526 17.8434413,31.3718013 17.8434413,30.3721021 L17.8434413,23.8785618 C17.8434413,23.6954551 17.7752931,23.5184039 17.6519921,23.3828454 L12.5,18 C12.2830037,17.7548738 11.0890424,15.7988764 11,15.5 L10.1435433,13.6046952 C9.95688492,12.4780944 9.90903717,11.7765293 10,11.5 C10.0589585,11.3207648 10.3322143,10.4781728 11,10.5 C11.6677857,10.5218272 11.8630875,10.4661562 12.5,11.5 C13.1369125,12.5338438 13.5,15 14.5,16 C15.1666667,16.6666667 16.1666667,17.6666667 17.5,19 C18.0516142,19.6485485 19.2590526,19.7741091 20.1185433,19.7741091 L23.6907098,19.7741091 C24.5502005,19.7741091 25.4483929,19.6485485 26,19 L30.0977235,15.0078182 C30.2909443,14.7719949 30.431533,14.5073771 30.5159155,14.2229733 L32,10.5 C32.5,9 33.6087122,8.98798975 34.1563312,9.25437917 C34.575926,9.45808442 34.7825083,9.93246155 34.6480596,10.3806283 Z" id="Path"></path>
            <path d="M16.1007601,4.4408921e-16 C15.6929806,4.4408921e-16 15.3624298,0.330624299 15.3624298,0.73833028 L15.3624298,3.25684862 C15.3624298,3.66462844 15.6929806,3.9951789 16.1007601,3.9951789 C16.5084663,3.9951789 16.8390904,3.66462844 16.8390904,3.25684862 L16.8390904,0.73833028 C16.8390904,0.330624299 16.5084663,4.4408921e-16 16.1007601,4.4408921e-16 Z" id="Path"></path>
            <path d="M24.8244285,0.0660068008 C24.4541536,-0.10056051 24.0150687,0.0612814132 23.8467317,0.43295695 L22.7024668,2.9515492 C22.5420358,3.30447085 22.6822358,3.72155392 23.0233457,3.90613649 L25.1687098,5.0673825 C25.2805026,5.12792544 25.4009166,5.15642491 25.5194916,5.15642491 C25.7819675,5.15642491 26.0357319,5.0165114 26.1695187,4.76961368 C26.3638465,4.41085907 26.2304314,3.96276628 25.8717492,3.76880684 L24.3319623,2.93530571 L25.1914502,1.04370368 C25.3597901,0.67239746 25.1957342,0.234715122 24.8244285,0.0660068008 Z" id="Path"></path>
            <path d="M41.3351896,11.3028026 L40.1909274,8.78391556 C40.0222187,8.41260919 39.5837984,8.2485519 39.2132279,8.41689165 C38.8419222,8.58559968 38.6778663,9.02328201 38.8462061,9.39458839 L39.7056968,11.2865597 L38.1659071,12.1197654 C37.8075968,12.3136509 37.6738099,12.7618177 37.8681404,13.1204984 C38.0015555,13.3674694 38.2556889,13.507309 38.5181648,13.507309 C38.6367398,13.507309 38.7571623,13.4788834 38.8689466,13.4182665 L41.0143218,12.2574645 C41.355429,12.0728818 41.495629,11.6557249 41.3351896,11.3028026 Z" id="Path"></path>
            <path d="M2.0202115,14.507309 C2.16226625,14.7229012 2.39764594,14.839706 2.63775095,14.839706 C2.77693351,14.839706 2.91787368,14.800427 3.0429466,14.7182498 C3.38368618,14.4940192 3.47811832,14.0361806 3.25389487,13.6954411 L1.82477555,11.5233477 C1.60054464,11.1830511 1.14344452,11.0889882 0.802040446,11.3124808 C0.461301096,11.5367113 0.366868727,11.99455 0.591099633,12.3352895 L2.0202115,14.507309 Z" id="Path"></path>
            <path d="M41.9098329,5.08141078 C42.1499372,5.08141078 42.3854,4.96460671 42.5274449,4.74901404 L43.956484,2.57692034 C44.1807145,2.23625475 44.0862827,1.77841614 43.7456177,1.55418524 C43.4052457,1.33069266 42.9477775,1.42475587 42.7228175,1.76505237 L41.29377,3.93714622 C41.0694663,4.27788579 41.1639714,4.73572439 41.5046363,4.9599553 C41.6297116,5.04213109 41.7707313,5.08141078 41.9098329,5.08141078 Z" id="Path"></path>
            <path d="M18.0486236,6.67162654 C17.7724215,6.37311909 17.3059362,6.35370137 17.0052966,6.6298366 C16.7056739,6.90634151 16.6869201,7.37355699 16.963425,7.67317127 L18.0352677,8.83434293 C18.1809318,8.9919032 18.3791731,9.07193776 18.5781536,9.07193776 C18.7569778,9.07193776 18.9365385,9.00703838 19.0785933,8.87620677 C19.3781344,8.59970186 19.396888,8.13248638 19.1203832,7.8328721 L18.0486236,6.67162654 Z" id="Path"></path>
            <path d="M43.1676537,14.2525059 C42.8918952,13.9532605 42.4246705,13.9345814 42.1243915,14.2107173 C41.8247772,14.4872208 41.8060249,14.954437 42.0825269,15.2540513 L43.1543626,16.4152237 C43.2999619,16.5727833 43.4982777,16.6528186 43.6972555,16.6528186 C43.8760896,16.6528186 44.0556419,16.5879192 44.197698,16.4570868 C44.4972363,16.1805819 44.5159913,15.7132925 44.2394865,15.4137514 L43.1676537,14.2525059 Z" id="Path"></path>
            <path d="M4.4165364,3.84234468 L3.34470957,5.00359069 C3.06819765,5.30313107 3.08695102,5.77034654 3.38656566,6.0469247 C3.52855389,6.17775704 3.70810828,6.24265642 3.8869318,6.24265642 C4.08591203,6.24265642 4.28422747,6.1626212 4.42982613,6.00506159 L5.50166034,4.84388993 C5.77816518,4.54427513 5.75941152,4.07705966 5.45987041,3.80055511 C5.15988711,3.52471492 4.69341026,3.54346866 4.4165364,3.84234468 Z" id="Path"></path>
            <path d="M29.1484588,7.91726311 L30.2198494,6.75601747 C30.4963543,6.45640311 30.4776076,5.98918764 30.1780609,5.7126828 C29.8780861,5.43691651 29.4115994,5.45456268 29.1347256,5.75454598 L28.0632702,6.91571838 C27.7867569,7.21533273 27.8055091,7.68254821 28.1051235,7.95905304 C28.247112,8.09025434 28.4266671,8.15478403 28.6054899,8.15478403 C28.8044704,8.15478403 29.0027863,8.07474881 29.1484588,7.91726311 Z" id="Path"></path>
            <path d="M7.66400779,9.21071732 C7.36446742,8.93458142 6.89791659,8.95326044 6.6206808,9.25250585 L5.54891348,10.4137515 C5.27240857,10.7132926 5.29116231,11.180582 5.59071043,11.4570869 C5.73275742,11.5879192 5.91231957,11.6528186 6.09106918,11.6528186 C6.29012295,11.6528186 6.48836485,11.5727834 6.63403742,11.4152238 L7.70587163,10.2540514 C7.98237588,9.95443704 7.96362214,9.48722083 7.66400779,9.21071732 Z" id="Path"></path>
            <path d="M1.45959747,3.36752433 L1.99532977,0.947056324 C2.08326498,0.548727138 1.83201111,0.154680194 1.43397748,0.066375966 C1.0331379,-0.0223714075 0.641601276,0.229325385 0.553296901,0.627654571 L0.0175645977,3.04812258 C-0.0704445193,3.44652589 0.180883256,3.84057276 0.578843129,3.92887692 C0.632962886,3.94076404 0.686270332,3.94615377 0.739282446,3.94615377 C1.07780681,3.94615377 1.38318036,3.71188165 1.45959747,3.36752433 Z" id="Path"></path>
        </g>
        <path d="M41.0250999,12.8959749 L44.1450999,12.8959749 L44.1450999,15.0524107 C44.1450999,15.5553063 43.5103891,15.9641567 42.7306171,15.9641567 L42.4405467,15.9641567 C41.6598231,15.9641567 41.0250999,15.5553063 41.0250999,15.0524107 L41.0250999,12.8959749 L41.0250999,12.8959749 Z" id="Path" fill="#FFFFFF" fill-rule="nonzero" transform="translate(42.585100, 14.430066) rotate(13.000000) translate(-42.585100, -14.430066) "></path>
        <rect id="Rectangle" fill="#FFFFFF" transform="translate(42.076662, 16.632353) rotate(13.000000) translate(-42.076662, -16.632353) " x="41.5566618" y="15.6096261" width="1.04" height="2.04545455"></rect>
    </g>
</svg>