<?xml version="1.0" encoding="UTF-8"?>
<svg width="60px" height="60px" viewBox="0 0 60 60" version="1.1" xmlns="http://www.w3.org/2000/svg" xmlns:xlink="http://www.w3.org/1999/xlink">
    <!-- Generator: Sketch 58 (84663) - https://sketch.com -->
    <title>Level / 4 - Wasted</title>
    <desc>Created with Sketch.</desc>
    <g id="Level-/-4---Wasted" stroke="none" stroke-width="1" fill="none" fill-rule="evenodd">
        <g id="noun_drunk_52064" transform="translate(11.000000, 16.000000)" fill-rule="nonzero">
            <path d="M15.3664222,22.2425463 C15.4998715,21.9290677 15.5665962,21.683421 15.5665962,21.5056064 C15.5665962,20.6451452 15.1288005,19.7906977 14.1976744,19.7906977 C13.5491469,19.7906977 11.4672864,20.1554032 11.1860465,20.6511628 C10.4519242,21.5957858 8.97261806,26.292785 8.30416373,27.2725802 C7.63978535,28.246932 7.04016913,34.7412153 7.04016913,34.815328 C7.04016913,35.6757891 7.79512399,36.3742072 8.72625007,36.3742072 C9.65737615,36.3742072 10.4127839,35.6757891 10.4127839,34.815328 C10.4127839,34.815328 10.8529855,29.498055 11.3199072,28.6740222 C11.7832058,27.8550139 14.12009,23.8118934 15.0878996,22.5921741 C15.1974971,22.4887513 16.1521617,22.3710921 16.2268873,22.2425463 L15.3664222,22.2425463 Z" id="Path" fill="#FFFFFF"></path>
            <path d="M15.4883721,12.9069767 C15.4883721,14.8081063 13.9476412,16.3488372 12.0468695,16.3488372 C10.14574,16.3488372 8.60465116,14.8081063 8.60465116,12.9069767 C8.60465116,11.0058472 10.14574,9.46511628 12.0468695,9.46511628 C13.9476412,9.46511628 15.4883721,11.0054893 15.4883721,12.9069767 Z" id="Path" fill="#FFFFFF"></path>
            <path d="M38.2943255,33.6285842 L38.2925949,33.6263838 C38.264472,33.5951385 38.2346184,33.5647734 38.2038995,33.5361686 C37.451936,32.7704394 32.1046881,27.3240809 31.1528355,26.3770412 C30.1282961,25.3573893 29.3611895,25.8485121 29.0453475,26.0034182 C28.7290728,26.1583243 29.0620759,26.0515791 27.4380147,27.6536965 C25.8139535,29.255814 25.8139535,30.5465116 23.3387511,27.7421514 C20.8635487,24.9377913 18.2134478,21.2477486 17.191947,19.8331376 C15.9186047,18.0697674 14.4837343,16.7561387 12.5242161,18.2787955 C10.8948176,19.5462092 10.2579417,22.0607933 11.3772338,23.6859874 C11.9284429,24.4860423 15.8751697,29.9293203 16.5817038,30.6475214 C16.5817038,30.6475214 19.172906,33.7971326 20.1970128,34.8396684 C21.2215523,35.8813241 24.140711,36.9353018 25.8142408,35.2234131 C26.7656607,34.2508491 28.8030577,31.8256001 29.4399336,31.1505262 C30.1663702,30.3790761 30.4761549,30.7601804 31.3120545,31.5452728 C31.8957132,32.0944854 35.7061519,35.649845 35.9739686,35.8971667 C36.2655816,36.1915764 36.6670903,36.3742072 37.1101344,36.3742072 C37.9996839,36.3742072 38.7210825,35.6401634 38.7210825,34.7358109 C38.7210825,34.3089389 38.5586809,33.9207934 38.2943255,33.6285842 Z" id="Path" fill="#FFFFFF"></path>
            <path d="M2.15116279,28.8255814 L2.15116279,26.244186 L0.860465116,26.244186 L0.860465116,28.8255814 C0.469772916,28.9452816 0,29.2810182 0,30.1162791 C0,30.7262219 0,35.3854077 0,35.7093023 C0,36.0279161 0.430232558,36.1395349 1.29069767,36.1395349 C2.15116279,36.1395349 3.01162791,36.0279161 3.01162791,35.7093023 C3.01162791,35.3858478 3.01162791,30.7262219 3.01162791,30.1162791 C3.01162791,29.2810182 2.54185499,28.9457217 2.15116279,28.8255814 Z" id="Path" fill="#FFFFFF"></path>
            <path d="M1.64973351,36.2650688 C1.63112912,36.2650688 1.61685133,36.2633085 1.59824694,36.2628684 C1.57964255,36.2633085 1.56536476,36.2650688 1.54676037,36.2650688 L1.64973351,36.2650688 Z" id="Path" fill="#000000"></path>
            <path d="M4.03888338,0.199666556 C4.42914292,0.385377875 4.93059614,0.795527045 5.10322758,1.69855934 C5.10495822,1.70736082 5.10668886,1.71660238 5.1084195,1.72584394 C5.81408836,1.76325025 6.3817386,2.09022539 6.7516631,2.6737638 C7.23061799,3.4298113 7.41795988,4.34208515 7.42791106,5.21783284 C7.52525962,5.23367551 7.62174285,5.25655937 7.71649545,5.28648442 C8.39490671,5.50212079 9.2372962,6.17675456 9.39478453,8.16544994 C9.40430306,8.28691042 9.31560771,8.39296831 9.19662614,8.40264994 C9.07677925,8.4136518 8.9729408,8.32211636 8.96342227,8.20109595 C8.85439189,6.82102321 8.37846562,5.95847775 7.58756269,5.70719537 C7.53174952,5.6895924 7.47507103,5.67462988 7.41795988,5.66362802 C7.39026962,6.16091189 7.31022748,6.63531189 7.19989912,7.04810151 C6.90352685,8.15708853 6.36746081,9.00291117 5.76692839,9.31096312 C5.57482724,9.40909968 5.38964866,9.45794791 5.21701722,9.45794791 C4.95309447,9.45794791 4.72075592,9.34440877 4.5446632,9.12085106 C4.02460559,8.46073974 4.15743228,7.10531115 4.82372906,6.27665141 C5.29100212,5.69619351 6.14723674,5.22003321 6.99611614,5.19230854 C6.98313633,4.40149517 6.81353352,3.58559757 6.38736318,2.91316417 C6.10180742,2.46340832 5.68342496,2.21344617 5.14259966,2.1703189 C5.13351379,3.47513895 4.26300138,5.27460242 3.31936939,6.31757831 C2.90444822,6.77657571 2.27838884,7.30774529 1.65708873,7.23909372 C1.03189468,7.16868184 0.764943311,6.83378536 0.651153667,6.56490002 C0.292910985,5.71731708 0.916374396,4.40765621 1.55974018,3.54335045 C2.18450157,2.70412892 3.46301259,1.86358717 4.66926935,1.73904616 C4.55288374,1.18411258 4.27900981,0.800807935 3.85543543,0.599253944 C3.24408651,0.308804962 2.46356743,0.459310344 1.99629436,0.721594576 C1.89159059,0.780564521 1.76006187,0.74183799 1.70251806,0.63534003 C1.64454159,0.52884207 1.68261569,0.395059508 1.78688681,0.336089563 C2.36535355,0.0108747176 3.28691987,-0.156793559 4.03888338,0.199666556 Z M6.98746294,5.63282283 C6.27746748,5.66450817 5.54627166,6.07377719 5.15860809,6.55521838 C4.5762474,7.27914047 4.53125073,8.40044957 4.88257085,8.8453646 C4.94141264,8.9206173 5.12183197,9.14945589 5.57179862,8.91797685 C6.05767607,8.66933492 6.52105519,7.9084466 6.78238198,6.93280206 C6.88622044,6.5446566 6.96193598,6.09886142 6.98746294,5.63282283 Z M4.71123739,2.17692001 C3.63650935,2.28825879 2.45924083,3.06410963 1.90457039,3.8087152 C1.17337458,4.791841 0.821621803,5.85330001 1.04876843,6.39063063 C1.14957827,6.62871078 1.36417775,6.76293341 1.70468136,6.80121987 C2.04691561,6.83862618 2.51764996,6.55389816 3.00136411,6.01920799 C3.87014588,5.05896605 4.70431483,3.35499869 4.71123739,2.17692001 Z" id="Combined-Shape" fill="#FFFFFF"></path>
        </g>
    </g>
</svg>