<?xml version="1.0" encoding="UTF-8"?>
<svg width="60px" height="60px" viewBox="0 0 60 60" version="1.1" xmlns="http://www.w3.org/2000/svg" xmlns:xlink="http://www.w3.org/1999/xlink">
    <!-- Generator: Sketch 58 (84663) - https://sketch.com -->
    <title>Level / 5 - Done</title>
    <desc>Created with Sketch.</desc>
    <g id="Level-/-5---Done" stroke="none" stroke-width="1" fill="none" fill-rule="evenodd">
        <g id="noun_drunk_17063" transform="translate(8.000000, 34.000000)">
            <path d="M33.51888,4.58176 C32.01504,4.58176 30.792,5.80432 30.792,7.30816 C30.792,8.812 32.01504,10.03504 33.51888,10.03504 C35.02224,10.03504 36.24528,8.812 36.24528,7.30816 C36.24528,5.80432 35.02224,4.58176 33.51888,4.58176 Z" id="Path" fill="#FFFFFF" fill-rule="nonzero"></path>
            <path d="M28.67904,4.75456 C26.9616,3.82384 23.5744,1.2472 23,1 C22.40768,0.81136 21.51136,0.88208 20.75568,1.69104 C20,2.5 20.20992,3.81088 20.44464,4.38928 L20.44704,4.396 L20.4816,4.47616 L21.6312,7.31584 C21.93216,8.05936 22.8096,8.44672 23.57568,8.13952 C24.33744,7.8304 24.70608,6.95824 24.39792,6.19552 L23.61024,4.2496 C23.60016,4.22464 23.59872,4.19968 23.59632,4.17472 C23.58528,4.05952 23.64624,3.94624 23.75856,3.90016 C23.89584,3.84592 24.05184,3.9112 24.108,4.04848 L24.89664,5.99488 C25.31568,7.03168 24.8136,8.2168 23.77776,8.63728 C23.53056,8.73712 23.27472,8.78656 23.016,8.78656 C22.18512,8.78656 21.44688,8.28832 21.13488,7.51744 L19.96704,4.63312 L15.61104,4.63312 L9.40416,1.20112 C8.87664,0.90928 8.23056,0.93664 7.72944,1.27264 L0.7128,5.97808 C-0.02496,6.47296 -0.22176,7.47232 0.27264,8.21008 C0.58272,8.6728 1.092,8.92288 1.6104,8.92288 C1.91856,8.92288 2.23008,8.83504 2.50464,8.65024 L8.70576,4.492 L12.83952,6.77776 L9.11712,6.77776 C8.74896,6.77776 8.39184,6.904 8.10528,7.13584 L2.02752,12.05104 C1.3368,12.61024 1.22976,13.62352 1.788,14.31424 C2.10624,14.70688 2.57088,14.91136 3.04032,14.91136 C3.39552,14.91136 3.75312,14.79424 4.0512,14.55376 L9.68688,9.99568 L15.19584,9.99568 C15.23328,9.99568 15.2688,9.98704 15.30624,9.98512 C15.34464,9.98752 15.38064,9.99568 15.41952,9.99568 L26.17344,9.99568 L25.82784,12.10576 L22.34352,13.34608 C21.50592,13.64416 21.06912,14.56432 21.3672,15.40144 C21.60192,16.06 22.2216,16.47136 22.88304,16.47136 C23.06208,16.47136 23.244,16.44112 23.42256,16.37776 L27.80256,14.81824 C28.35408,14.62192 28.75584,14.14048 28.85088,13.56256 L29.65584,8.64688 C29.66304,8.60176 29.66064,8.5576 29.66448,8.51248 C29.66736,8.47024 29.67648,8.42992 29.67648,8.38672 L29.67648,6.2416 C29.67552,5.5696 29.26368,4.99552 28.67904,4.75456 Z" id="Path" fill="#FFFFFF" fill-rule="nonzero"></path>
            <path d="M22.09104,3.05776 L22.0608,2.98432 C22.05984,2.98192 22.05744,2.98 22.056,2.9776 L22.08864,3.05824 L22.09104,3.05776 Z" id="Path" fill="#000000" fill-rule="nonzero"></path>
            <path d="M40.54944,9.03808 C40.5168,9.03808 40.48368,9.04384 40.45296,9.05344 C40.50192,9.03856 40.55424,9.03232 40.60656,9.04432 C40.58784,9.04 40.56816,9.03808 40.54944,9.03808 Z" id="Path"></path>
            <path d="M43.3632,13.0408 C43.3944,13.0408 43.42512,13.03504 43.45344,13.02544 C43.42368,13.03552 43.392,13.04128 43.35888,13.0408 C43.3608,13.0408 43.36176,13.0408 43.3632,13.0408 Z" id="Path" fill="#000000" fill-rule="nonzero"></path>
            <path d="M39.6672,13.33504 C39.7008,13.33504 39.73344,13.3288 39.76464,13.32016 C39.71568,13.33408 39.66384,13.34128 39.61056,13.32928 C39.62976,13.3336 39.64848,13.33504 39.6672,13.33504 Z" id="Path" fill="#000000" fill-rule="nonzero"></path>
            <path d="M46.88976,12.20992 C46.3872,12.05776 46.0909334,11.5608439 44,12 C41.9090666,12.4391561 38.3092775,11.1803718 37.38,11.07808 C36.4507225,10.9757882 35.86752,11.06464 35.40672,11.05408 C34.70448,11.03728 34.29984,11.03488 33.76992,11.07952 C33.08016,11.1376 30.98112,11.31424 30.98112,12.66304 C30.98112,13.60624 32.43072,13.87936 33.5952,14.09872 C33.88464,14.15296 34.15056,14.20288 34.35792,14.25808 C35.11632,14.4592 35.27136,14.6656 35.30256,14.74528 C35.3544,14.87728 35.22816,15.0784 35.10576,15.27328 C34.95072,15.51856 34.77552,15.79648 34.91472,16.08016 C35.03712,16.33024 35.352,16.46176 35.96592,16.52176 C36.41376,16.56448 36.82512,16.61248 37.20864,16.65808 C37.95552,16.7464 38.60016,16.82224 39.20256,16.82224 C40.24272,16.82224 41.03664,16.58992 41.85696,16.04464 L41.9952,15.95248 C42.59376,15.55264 43.27248,15.09952 44.0088,15.09952 C44.3064,15.09952 44.59392,15.17008 44.88816,15.31552 C45.00864,15.37552 45.1536,15.40576 45.31824,15.40576 C46.1928,15.40576 47.84256,14.44144 47.98896,13.45504 C48.03744,13.12864 47.9592,12.5344 46.88976,12.20992 Z" id="Path" fill="#FFFFFF" fill-rule="nonzero"></path>
        </g>
        <path d="M23.1918863,48.10673 C23.3569773,47.6041484 23.6497327,47.1495586 24.0386775,46.7915419 C24.6122865,46.2637835 25.0445048,45.5928628 25.2893352,44.8472969 L26.2064883,42 L27.1250524,42.3013864 L26.207153,45.1526703 C25.963873,45.8935107 25.9141096,46.6906124 26.0636957,47.4567035 C26.1646252,47.9754548 26.131106,48.5151741 25.966015,49.0170171 L24.7741279,52.6487896 L22,51.7381328 L23.1918863,48.10673 Z" id="Path" fill="#FFFFFF" fill-rule="nonzero" transform="translate(24.562526, 47.324395) rotate(52.000000) translate(-24.562526, -47.324395) "></path>
    </g>
</svg>