<?xml version="1.0" encoding="UTF-8"?>
<svg width="63px" height="64px" viewBox="0 0 23 24" version="1.1" xmlns="http://www.w3.org/2000/svg" xmlns:xlink="http://www.w3.org/1999/xlink">
    <!-- Generator: Sketch 58 (84663) - https://sketch.com -->
    <title>lefteye</title>
    <desc>Created with Sketch.</desc>
    <defs>
        <linearGradient x1="-22.3131939%" y1="98.8456449%" x2="100%" y2="-10.4566895%" id="linearGradient-1">
            <stop stop-color="#3CE7FF" offset="0%"></stop>
            <stop stop-color="#FF00F2" offset="100%"></stop>
        </linearGradient>
    </defs>
    <g id="Symbols" stroke="none" stroke-width="1" fill="none" fill-rule="evenodd">
        <g id="Logo" transform="translate(-22.000000, -25.000000)" fill="url(#linearGradient-1)" fill-rule="nonzero">
            <g id="lefteye" transform="translate(21.000000, 23.000000)">
                <path d="M12.3528701,24.3548325 C10.1093537,24.3557125 7.86656045,23.6952945 5.96232278,22.4388125 C3.48618901,20.8053631 1.81059317,18.3502307 1.24313172,15.5262485 C0.700151938,12.8235217 1.28304979,9.94319042 2.84227547,7.62329766 C4.35032961,5.37964874 6.60207706,3.86884157 9.18318507,3.36914002 C11.6467281,2.89212076 14.2623675,3.43736382 16.3588394,4.86446532 C18.3768846,6.23754805 19.7242742,8.27635047 20.1537794,10.6044706 C20.5625022,12.8194181 20.0480822,15.1613058 18.7435853,17.0286067 C17.4962785,18.8148108 15.6616605,19.9969992 13.5762868,20.3572245 C11.600146,20.6980045 9.52412724,20.220227 7.88135026,19.0454096 C6.32301406,17.9308451 5.30591385,16.3074479 5.01737385,14.4738028 C4.74522318,12.7436308 5.19371076,10.9404168 6.24833824,9.52639879 C7.23767374,8.19994823 8.65816899,7.35030419 10.2482696,7.13371255 C11.7400157,6.93101839 13.277337,7.34779745 14.4654902,8.2786464 C15.5622644,9.13885105 16.2437512,10.3510029 16.3836889,11.6917928 C16.5139419,12.9448137 16.1193527,14.2112066 15.3009433,15.1673275 C14.5617125,16.0307939 13.5497899,16.5381946 12.4512655,16.5968332 C11.4374391,16.6498949 10.4101334,16.2615572 9.69882666,15.5561895 C9.07148902,14.93348 8.74760435,14.120323 8.78774276,13.2670633 C8.82508171,12.471088 9.26067873,11.6696438 9.89746135,11.2256792 C10.4347105,10.851048 11.0678868,10.7505536 11.6794268,10.9424897 C12.1877707,11.1023599 12.4698775,11.6432067 12.3095423,12.150504 C12.1492069,12.6582633 11.6064403,12.9402733 11.099022,12.7806336 C11.0721818,12.7720979 11.0562166,12.7667916 11.0020519,12.8046937 C10.8557609,12.9066138 10.7249152,13.1586655 10.7155815,13.355003 C10.7011111,13.6672951 10.8167056,13.9476606 11.059591,14.1880165 C11.3859824,14.5119547 11.8815898,14.6946971 12.3502029,14.6725699 C13.0740674,14.6339428 13.5562487,14.2399308 13.8333734,13.9164486 C14.3026565,13.3681463 14.5385293,12.6118218 14.4629102,11.8923456 C14.3783048,11.074706 13.9551187,10.3294964 13.2724398,9.79411944 C12.4930614,9.18324967 11.4858436,8.90854677 10.5078539,9.04243783 C9.43613865,9.18814572 8.4734777,9.76828611 7.7969416,10.6756143 C7.05002004,11.6767483 6.73225558,12.9514264 6.92430728,14.1732407 C7.13182496,15.4927538 7.87117909,16.667002 9.00615498,17.4786856 C10.2322807,18.3552391 11.7781875,18.7126527 13.2484329,18.4582272 C14.8214309,18.1864378 16.2107052,17.2878381 17.160483,15.9274488 C18.1718502,14.4794936 18.5708199,12.6668288 18.2551573,10.9542284 C17.9200982,9.13515343 16.8599456,7.53764296 15.2710504,6.45612076 C13.596325,5.31642503 11.5110332,4.8809207 9.54945616,5.26003787 C7.47702518,5.66137275 5.66437631,6.88120238 4.44529047,8.69534411 C3.17086534,10.5917368 2.69346723,12.9428492 3.13621204,15.1457724 C3.60135866,17.4627914 4.98369889,19.4817157 7.02790282,20.8309971 C9.15099708,22.2319873 11.7756743,22.7446585 14.2288159,22.2371538 C18.6317421,21.3262836 22.0086537,17.3359153 22.2576054,12.7485343 C22.2865094,12.2172666 22.7393067,11.8105622 23.2738521,11.83807 C23.8060829,11.8665027 24.2141108,12.3202202 24.1849754,12.8517189 C23.8891722,18.2979058 19.8661008,23.0389852 14.6189237,24.1241156 C13.8718729,24.2780114 13.1123565,24.3545334 12.3528701,24.3548325 Z" id="Path" transform="translate(12.615514, 13.777600) rotate(-82.000000) translate(-12.615514, -13.777600) "></path>
            </g>
        </g>
    </g>
</svg>