<?xml version="1.0" encoding="UTF-8"?>
<svg width="300px" height="300px" viewBox="0 0 100 100" version="1.1" xmlns="http://www.w3.org/2000/svg" xmlns:xlink="http://www.w3.org/1999/xlink">
    <!-- Generator: Sketch 58 (84663) - https://sketch.com -->
    <title>Logo no eyes</title>
    <desc>Created with Sketch.</desc>
    <defs>
        <linearGradient x1="100%" y1="100%" x2="0%" y2="0%" id="linearGradient-1">
            <stop stop-color="#FF00F2" offset="0%"></stop>
            <stop stop-color="#FF00F2" stop-opacity="0.6" offset="100%"></stop>
        </linearGradient>
        <linearGradient x1="100%" y1="100%" x2="0%" y2="0%" id="linearGradient-2">
            <stop stop-color="#3CE7FF" stop-opacity="0.6" offset="0%"></stop>
            <stop stop-color="#3CE7FF" offset="100%"></stop>
        </linearGradient>
        <linearGradient x1="152.497016%" y1="64.3514064%" x2="-10.9974387%" y2="43.7360492%" id="linearGradient-3">
            <stop stop-color="#3CE7FF" offset="0%"></stop>
            <stop stop-color="#FF00F2" offset="100%"></stop>
        </linearGradient>
    </defs>
    <g id="Logo-no-eyes" stroke="none" stroke-width="1" fill="none" fill-rule="evenodd">
        <rect id="Rectangle-Copy" fill="url(#linearGradient-1)" x="8" y="8" width="92" height="92" rx="10"></rect>
        <rect id="Rectangle" fill="url(#linearGradient-2)" x="0" y="0" width="92" height="92" rx="10"></rect>
        <path d="M15.9096747,63.2471521 C12.2756967,66.875869 20.3647402,76.8537508 25.4622236,76.8537508 C27.122099,76.8537508 28.0763003,76.6131086 29.4400219,75.9682527 L29.8625392,75.762506 C31.1699244,75.1097598 31.8145052,74.9166655 33.2217985,74.9166655 C34.2566798,74.9166655 34.7537266,75.1648045 35.5815835,76.0282779 L35.9961747,76.4761737 C37.4826882,78.0980876 38.6977792,78.7908361 40.9813734,78.7908361 C42.8739459,78.7908361 44.0518724,78.5399166 45.5814219,77.9239614 L46.3366238,77.6058971 C47.6461197,77.0453428 48.389967,76.8537508 49.7108952,76.8537508 C50.798386,76.8537508 51.6226279,77.0637173 53.0369503,77.643184 L54.1129617,78.096093 C56.2561273,78.9877858 57.7384715,79.243974 59.6926598,78.7561342 C61.386329,78.3333299 62.3292501,77.5222863 63.0807035,76.1633995 L63.3479389,75.6437191 L63.4786139,75.3732965 C64.0219001,74.2499238 64.2852459,74.0093551 65.3026494,73.9458594 C65.9417608,73.9059728 66.2884546,74.1607087 67.0078536,75.1548058 L67.3782331,75.6700942 C69.2610898,78.2609408 71.323942,79.0852799 75.2975826,77.7626505 C78.9547535,76.5453584 82.5619227,74.3125708 84.7921752,71.9549103 C87.4021939,69.1957886 87.9155318,66.3475325 85.1495104,64.966524 C83.5719646,64.178893 82.0149637,64.3838393 80.3400754,65.3464242 L80.0546238,65.5135694 L79.72054,65.7227996 C79.4430821,65.9047795 79.1476122,66.1202691 78.6813204,66.4776872 L77.5756904,67.3358333 C75.4712922,68.9782638 74.2916775,69.6262363 72.9367683,69.687734 C71.5310077,69.7515397 70.7202194,69.4037044 69.3229312,68.2749013 L68.8116453,67.8514125 C66.774274,66.1471938 65.438271,65.5351934 63.1457828,65.8213396 C60.8594921,66.1067122 59.6732352,67.1040074 58.8476461,68.8776546 L58.5766131,69.4893946 C58.1612234,70.4402303 57.9930914,70.6148406 57.3875431,70.6580314 C56.568064,70.7164809 55.9102016,70.4073527 54.7370109,69.459751 L54.1712281,68.9903336 C52.3772121,67.4858168 51.3660651,66.8885122 49.7883191,66.7834814 C48.2313073,66.6798309 47.2418664,67.0694312 45.9324749,68.0651032 L45.3937778,68.4907824 C44.3386999,69.3378522 43.7844374,69.6264939 42.8438433,69.6891094 C42.0202612,69.7439353 41.4309756,69.5789458 40.6108505,69.0964654 L40.2915745,68.900462 C40.138697,68.8031535 39.5879334,68.4411742 39.522562,68.398828 C38.065961,67.4552719 36.9266347,66.9695756 35.2902275,66.7880158 C34.0110288,66.6460884 33.0522093,66.7334506 31.5392678,67.0548352 L30.1581942,67.3594194 C28.5043794,67.6993149 27.4318319,67.6271004 25.9827517,66.9036093 C25.2855414,66.5555088 24.6262478,66.0896615 23.8429385,65.416369 L21.7362009,63.5130233 C21.0484078,62.922875 20.4758489,62.5288315 19.8746665,62.2787015 C18.5899797,61.7441903 17.3355306,61.9757388 16.1756351,62.9973579 L15.9096747,63.2471521 Z M17.3140812,64.5495246 C17.8970069,63.9804044 18.2488268,63.9006043 18.7294496,64.096121 C19.0564519,64.2291451 19.4470145,64.4919506 19.9620205,64.9240022 L21.6165115,66.3957064 C22.7193885,67.3645038 23.6266713,68.0240277 24.6573309,68.5271528 C26.464801,69.4094844 27.9511728,69.5660519 29.8315228,69.2508719 L30.6973648,69.0814648 L31.2062822,68.9691739 C32.7919682,68.6176083 33.5992024,68.5211428 34.6904284,68.6395186 C35.7505652,68.7545219 36.5107971,69.0305342 37.4697114,69.5951904 L38.6743953,70.3526125 C40.0430731,71.2043943 41.1177896,71.5655397 42.6098938,71.4684219 C43.9913112,71.3785085 44.8816332,70.9809521 46.0738309,70.0916764 L46.6430946,69.6514379 C47.7078407,68.8168113 48.2359338,68.5807673 49.2063019,68.6439265 C50.0513189,68.6989267 50.7026394,69.0417954 51.9143308,70.0096905 L52.4924701,70.4804908 C54.2865316,71.946061 55.4113969,72.5259443 57.0804228,72.4095516 C58.6415688,72.3006821 59.3948806,71.6341871 60.0743338,70.2344198 L60.4659628,69.3774442 C60.9727055,68.3130299 61.5131145,67.8688208 62.9275321,67.6962059 C64.3120494,67.5272399 65.091414,67.8199418 66.4604169,68.8969804 L66.9635026,69.3038252 C68.9679391,70.9444844 70.2545536,71.5685161 72.4799162,71.4697589 C74.342072,71.3871201 75.7654474,70.6800009 77.9621605,69.0458523 L79.7942781,67.6631856 C80.2729209,67.3126574 80.5150086,67.161404 80.8898081,66.9507973 C81.9408145,66.3602178 82.700076,66.2625025 83.4818988,66.6441558 C84.3654118,67.0754501 84.1741926,68.1128044 82.4791822,69.8647454 C80.5312523,71.8781009 77.2733195,73.8498104 73.9901044,74.9182963 C71.0652426,75.8701601 70.0349239,75.4676013 68.7215994,73.7006835 L68.3560859,73.2034557 C67.2209226,71.669767 66.2834265,70.9962733 64.6404884,71.096525 C62.7595646,71.2112986 61.8678765,71.9098996 61.0500993,73.4395846 L60.6762362,74.1800029 C60.177204,75.1514716 59.7239947,75.5724308 58.6459864,75.8355502 C57.3933215,76.1412996 56.4356216,76.022588 54.9645727,75.4636519 L53.9368661,75.046653 C51.9851584,74.2355345 50.8660746,73.9188203 49.283278,73.9188203 C47.7954046,73.9188203 46.8184136,74.1232264 45.5201521,74.6288399 L44.7327808,74.9518727 C43.2371632,75.5784636 42.3214011,75.8018173 40.6042434,75.8018173 C39.2043418,75.8018173 38.5409069,75.4920281 37.5974841,74.5379817 L37.1776154,74.0958953 C35.8111,72.6356251 34.7954824,72.0358233 32.889546,72.0358233 C31.2392705,72.0358233 30.2905878,72.2697462 28.9347533,72.896596 L28.5146796,73.0965978 C27.2148556,73.7311177 26.5740028,73.9188203 25.1748485,73.9188203 C21.915148,73.9188203 15.8073045,66.6418756 17.2043089,64.6777764 L17.3140812,64.5495246 Z" id="Path-2" fill="url(#linearGradient-3)" fill-rule="nonzero"></path>
    </g>
</svg>