<?xml version="1.0" encoding="UTF-8"?>
<svg width="63px" height="62px" viewBox="0 0 23 22" version="1.1" xmlns="http://www.w3.org/2000/svg" xmlns:xlink="http://www.w3.org/1999/xlink">
    <!-- Generator: Sketch 58 (84663) - https://sketch.com -->
    <title>righteye</title>
    <desc>Created with Sketch.</desc>
    <defs>
        <linearGradient x1="58.9573768%" y1="135.610575%" x2="23.1034498%" y2="-15.3742708%" id="linearGradient-1">
            <stop stop-color="#3CE7FF" offset="0%"></stop>
            <stop stop-color="#FF00F2" offset="100%"></stop>
        </linearGradient>
    </defs>
    <g id="Symbols" stroke="none" stroke-width="1" fill="none" fill-rule="evenodd">
        <g id="Logo" transform="translate(-55.000000, -27.000000)" fill="url(#linearGradient-1)" fill-rule="nonzero">
            <g id="righteye" transform="translate(52.000000, 23.000000)">
                <path d="M14.4098506,25.0495826 C12.1563902,25.048022 9.90293421,24.3815079 7.98888369,23.1160014 C5.49999041,21.4708192 3.81428653,19.000281 3.24122642,16.1600597 C2.69288889,13.4417911 3.27522582,10.546162 4.8388303,8.21513498 C6.35111965,5.9607178 8.61119904,4.44400621 11.2032029,3.94435199 C13.6771454,3.46737748 16.3049746,4.01848566 18.4122977,5.45576484 C20.4407876,6.83864103 21.7963758,8.89018886 22.2303267,11.231655 C22.6432796,13.4592999 22.1291362,15.8135815 20.8208955,17.6897906 C19.5700099,19.4845166 17.7285502,20.6712459 15.6343258,21.0311924 C13.6497974,21.371705 11.5640545,20.8890233 9.91271281,19.7059179 C8.346252,18.5834907 7.3228708,16.9500057 7.03104978,15.1059034 C6.75580372,13.3658644 7.20431058,11.5531643 8.26206914,10.1324733 C9.25434189,8.799763 10.6802062,7.94696637 12.2771189,7.73090865 C13.7752562,7.52871815 15.3198471,7.94947718 16.5142834,8.88676938 C17.6168585,9.75292696 18.3026896,10.9725262 18.4447115,12.3208852 C18.57691,13.5809792 18.1819543,14.8539474 17.360961,15.8144657 C16.6193961,16.6819032 15.6035419,17.1910084 14.500212,17.2487748 C13.4819495,17.3010257 12.449666,16.9094209 11.7344361,16.1993766 C11.1036377,15.5725393 10.7774296,14.7545314 10.8168143,13.8965956 C10.8534497,13.096258 11.2901026,12.290855 11.9292232,11.8451282 C12.4684449,11.4690099 13.1043181,11.3686493 13.7187784,11.5623132 C14.2295503,11.7236215 14.5134981,12.2677673 14.353006,12.7776961 C14.1925143,13.2880894 13.6476497,13.5710681 13.1378077,13.4099927 C13.1108393,13.4013805 13.0947976,13.3960275 13.0404341,13.4340803 C12.8936059,13.5364048 12.7624554,13.7897082 12.7532947,13.9871216 C12.7391011,14.3011254 12.8555141,14.5831677 13.0997386,14.8251177 C13.4279305,15.1512033 13.9259343,15.3354964 14.3966005,15.3137572 C15.1236315,15.2757049 15.60752,14.8800387 15.88552,14.5550689 C16.3562847,14.0042448 16.5923773,13.2439936 16.5156375,12.5204552 C16.4297644,11.6982006 16.0038887,10.9484078 15.3175991,10.4093258 C14.5340989,9.79422806 13.5221165,9.51690851 12.5399378,9.65047493 C11.463631,9.79582145 10.4973362,10.3781223 9.81879179,11.2897325 C9.06965236,12.2955909 8.75187103,13.5769738 8.94610803,14.8057558 C9.15598624,16.1327939 9.89989979,17.3143429 11.040793,18.1317527 C12.2733108,19.0144904 13.8264605,19.3755649 15.3029453,19.1213336 C16.8826193,18.8497541 18.2770708,17.947697 19.2295735,16.5808172 C20.243843,15.1259541 20.6426021,13.303697 20.3236704,11.5812795 C19.98514,9.75177715 18.9185439,8.14427518 17.3214246,7.05503976 C15.6380313,5.90721554 13.5430204,5.46703079 11.5731621,5.84610843 C9.49198269,6.24740593 7.67263061,7.47200871 6.45012154,9.2948576 C5.17211769,11.2003522 4.69517035,13.5639499 5.14228291,15.7795409 C5.61202114,18.1098834 7.00269322,20.1414812 9.05743177,21.5004529 C11.1914668,22.9115053 13.8283383,23.4298713 16.2917999,22.9222314 C20.7132488,22.0111186 24.1007727,18.0023555 24.3458195,13.3898703 C24.3742715,12.8556953 24.8286319,12.4472344 25.3655768,12.4754767 C25.900198,12.5046463 26.3105299,12.961318 26.2818456,13.4957251 C25.9906773,18.9717157 21.954949,23.7346386 16.6856972,24.820056 C15.935503,24.9739893 15.1727033,25.0501073 14.4098506,25.0495826 Z" id="Path" transform="translate(14.661431, 14.413076) rotate(-20.000000) translate(-14.661431, -14.413076) "></path>
            </g>
        </g>
    </g>
</svg>